<?xml version="1.0" encoding="UTF-8"?>
<svg id="Layer_1" data-name="Layer 1" xmlns="http://www.w3.org/2000/svg" viewBox="0 0 278.58 460.71">
  <defs>
    <style>
      .cls-1 {
        fill: #05386b;
      }
    </style>
  </defs>
  <path class="cls-1" d="M221.51,10.68c.84-.58,1.69-1.15,2.53-1.73,.51,.93,1.47,1.86,1.45,2.78-.03,2.62-.46,5.24-.83,8.8,3.89-3.33,7.15-6.12,10.4-8.91,.67,.38,1.35,.76,2.02,1.14-.97,5.9-1.95,11.81-3.08,18.68,3.04-3.22,5.49-5.83,7.94-8.43,2.18,8.14-5.48,12.59-5.74,20.28,1.84-.42,3.5-.8,5.16-1.18,2.1-.48,4.19-1.27,6.29-1.31,1.42-.03,3.64,.66,4.07,1.65,.45,1.03-.47,3.11-1.4,4.21-2.65,3.13-5.61,5.99-8.39,8.89,.6,.73,.77,1.15,.98,1.17,9.97,.8,10.86,2,11.44,12.18,.15,2.67,1.46,5.88,3.33,7.75,10.39,10.4,11.06,28.01,1.39,38.92-2.23,2.52-4.24,5.64-5.19,8.82-2.1,7.06-3.54,8.55-11.72,8.72,.28,4.59,.55,9.18,.83,13.78,.33,5.35,.87,10.73-4.24,14.52-.58,.43-1.26,1.56-1.07,2.08,2.41,6.76,1.97,15.06,10.67,19.21h-4.73c-.11,.44-.31,.76-.23,.99,1.15,3.24,2.13,6.58,3.58,9.69,3.23,6.91,6.55,13.83,14.77,16.68-.3,.47-.6,.94-.9,1.41-2.67-.82-5.33-1.64-7.87-2.42,2.81,5.91,5.65,11.89,8.78,18.46-1.01,1.57,2.98,9.43,9.21,15.78-.63,.64-1.83,1.31-1.79,1.89,.37,5.46-.13,11.31,1.75,16.24,2.54,6.68,2.45,12.72,.63,19.38-2.85,10.4-8.15,18.44-18.8,21.95-7.05,2.33-11.96,7.45-17.3,12.21-3.89,3.47-8.71,5.87-13.03,8.88-1.41,.98-3.22,2.14-3.71,3.6-2.94,8.77-4.31,18.3-8.52,26.37-7.98,15.31-6.07,30.68-2.17,45.96,3.84,15.05,9.98,20.48,24.18,21.82,7.87,.75,15.98,.45,23.85-.52,9.86-1.22,15.37,5.97,22.53,10.05-.89,1.29-1.54,3.38-2.7,3.72-5.81,1.71-12.31,1.94-17.48,4.72-3.91,2.1-7.57,2.58-11.58,3.49-8.4,1.91-14.86-1.75-21.5-5.59-2.29-1.32-4.56-2.66-7.27-4.24-.43,2.02-.27,4.12-1.24,5.27-2.21,2.61-1.87,7.96-7.64,7-9.36-1.57-10.85-2.8-11.94-10.45-.2-1.4-1.43-2.66-2.18-3.98-1.19,.72-2.71,1.19-3.52,2.22-3.28,4.1-6.47,8.11-12.46,8.01-.84-.01-1.69,.86-2.47,1.29,2.6,11.1,1.47,14.83-5.18,17.27-4.3,1.58-8.69,1.11-11.44-2.42-2.45-3.14-3.59-7.31-5.79-12.06-10.49,8.72-21.53,16.56-36.64,11.64v-4.62c-10.14,2.23-19.89,3.18-29.26-1.57,1.11-6.74,10.35-14.81,18.07-14.82,8.32,0,16.64,.16,24.96,.19,16.8,.06,24.48-10.08,28-23.56,3.99-15.25,3.98-30.96,2.34-46.64-.34-3.27-.51-6.61-.28-9.88,.42-5.96-.2-11.45-3.52-16.73-1.84-2.93-2.36-6.68-4.07-10.01v11.9c-.33,.09-.65,.18-.98,.26-.78-2.43-1.56-4.85-2.23-6.93-1.43,7.87-2.89,15.93-4.35,23.99h-1.33c-.42-1.13-.84-2.26-1.26-3.38-.27,.03-.54,.06-.8,.09-.23,1.79-.46,3.58-.87,6.77-1.38-2.97-2.16-4.64-3.25-7,.28,5.39,.52,9.99,.75,14.58-.69,.03-1.38,.05-2.08,.08-1.95-9.29-6.83-18.46,.59-28.11-.52-.22-1.04-.44-1.57-.65-.82,1.2-1.64,2.39-2.46,3.59-.25-.1-.5-.21-.75-.31,.46-4.71,.92-9.42,1.38-14.13-.33-.12-.66-.24-.99-.37-4.83,10.13-9.66,20.25-14.48,30.38-.32,0-.64,0-.97-.01v-26.41c1.09,3.47,1.77,5.63,2.45,7.78,.38-.08,.77-.16,1.15-.25-1.19-8.73-2.38-17.46-3.65-26.71-3.97,1.86-5.86,4.34-4.05,8.02,3.63,7.4,1.89,13.19-3.07,19.63-3.66,4.75-4.97,11.32-7.4,17.26-.46-.8-1-1.72-1.25-2.16-.41,3.83-.87,8.15-1.33,12.47-.62-.06-1.25-.12-1.87-.18-4.28-12.71-.84-25.03,1.97-38.22-2.94,3.9-5.52,7.52-8.32,10.97-3.03,3.74-5.9,7.74-9.51,10.86-3.32,2.88-7.52,4.75-12.01,6.34,5.47-9.39,15.08-16.2,15.26-29.23-8.07,7.01-15.18,14.11-25.34,15.91-.36-.35-.72-.69-1.09-1.04,5.34-7.17,10.68-14.33,15.86-21.27,1.94-8.01,6.7-14.53,12.29-21.38-14.81,1.02-25.35-6.55-35.38-15.86,13.12,.38,26.22,1.57,36.7-9.16-1.06-.1-1.83-.17-3.39-.31,3.96-3.67,7.42-6.87,11.96-11.08h-29.13c2.65-2.84,5.3-5.69,7.95-8.54-.21-.3-.41-.6-.62-.9-1.67,1.25-3.47,2.35-4.98,3.76-5.34,4.97-10.98,9.7-15.76,15.17-5.2,5.95-9.61,12.58-14.26,19-1.25,1.72-2.09,3.74-3.89,7.05-.36-4.02-.59-6.61-.82-9.21-.73,10.45-2.62,20.35-9.29,28.77-.54,.68-1.28,1.21-2.93,1.36,2.95-12.86,4.65-26.16,9.12-38.47,8.89-24.53,32.12-35.9,51.18-35.02,6.76,.31,13.43,2.26,20.19,3.04,2.81,.32,5.76-.37,8.62-.79,2.59-.37,5.13-1.21,7.73-1.44,2.91-.26,5.86-.06,10.02-.06-6.39-11.01-11.23-21.4-22.45-26.13-5.35-2.26-2.25-5.46-1.36-8.48-.66-.06-1.15-.19-1.19-.1-3.55,7.35-9.48,6.91-16.45,6.08-13.38-1.59-26.89-2.1-40.34-3.07-1.61-.12-3.22-.29-5.99-.55,4.63-5.04,8.62-9.4,12.61-13.75-.31-.32-.61-.63-.92-.95-1.66,1.47-3.48,2.81-4.96,4.45-6.9,7.67-15.22,13.11-24.51,17.62-8.58,4.16-16.49,9.69-25.69,15.22,4.11-6.24,7.31-12.43,11.78-17.5,4.48-5.09,10.23-9.07,15.21-14-2.96,1.5-5.92,3-8.88,4.49,7.74-8.12,14.29-17.93,27.23-18.67-1.96-.29-3.92-.59-6.04-.91,14.22-5.65,28.18-7.8,41.83,2.52,.12-.65,.24-1.3,.36-1.95-3.92-2.19-7.85-4.39-12.42-6.94,1.35-.42,2.06-.89,2.71-.82,6.78,.73,13.54,1.87,20.34,2.24,6.1,.33,9.84,3.38,12.54,8.43,.8,1.49,1.9,2.82,2.86,4.22,.37-.21,.75-.41,1.12-.62-.98-2.35-1.96-4.69-2.94-7.04,.25-.42,.51-.85,.76-1.27,3.61,2.32,7.22,4.64,10.73,6.9,.05-.22,.23-.99,.42-1.76,6.91,5.58,13.43,16.85,17.93,30.22v-5.02c.42-.1,.84-.19,1.25-.29,2.34,6.64,4.94,13.21,6.94,19.95,1.67,5.62,5.57,8.62,10.71,10.09,1.79,.51,4.04-.56,6.08-.91,0-.49,0-.98,.02-1.48,1.62,.8,3.19,1.78,4.88,2.37,3.59,1.24,6.39-.7,7.47-4.29,.72-2.41,2.01-4.76,3.51-6.8,6.97-9.48,15.02-18.27,18.39-29.95,.36-1.24,.49-2.55,.82-4.27h-6.36c2.77-2.06,5.47-3.36,7.12-5.49,2.35-3.03,.65-5.47-1.52-6.23,2.64-3.08,5.3-6.18,7.96-9.29-.39-.38-.77-.75-1.16-1.13-1.82,1.37-3.63,2.74-5.45,4.11-.32-.31-.64-.63-.96-.94,1.93-2.2,3.86-4.4,6.11-6.97-1.55-.16-2.61-.28-3.67-.39-.24-.3-.48-.61-.73-.91,.6-.22,1.36-.28,1.78-.69,3.1-3.1,5.06-6.37,1.24-10.35-.37-.39-.65-1.25-.48-1.71,2.26-6.23-.84-11.77-2.28-17.49-.27-1.07-1.8-1.82-3.75-3.67-.75-2.89-1.72-7.45-3.17-11.84-.58-1.74-1.96-3.53-3.47-4.58-4.42-3.07-6.04-7.21-6.19-12.39-.07-2.59-.49-5.37-1.56-7.68-6.59-14.27-5.05-24.11,5.5-35.64,1.78-1.94,3.37-4.65,3.72-7.19,1.02-7.55,5.05-11.97,12.89-13.6-7.95-18.13-11.89-35.91,1.1-52.88,.75-.05,1.5-.1,2.25-.15,.46,6.82,.91,13.65,1.37,20.47l1.26,.1c.16-1.94,.24-3.89,.5-5.82,.41-2.95,.64-5.99,1.57-8.79,.41-1.23,2.27-2.47,3.63-2.7,.7-.12,2.09,1.83,2.62,3.08,.88,2.09,1.32,4.37,1.99,6.74,1.62-.99,2.86-1.75,4.1-2.5-3.19,4.52-6.37,9.04-9.55,13.56-.46-.29-.91-.58-1.37-.87,.73-5.78,5.38-11.35,1.89-17.35l-1.6-.2c-.99,6.05-1.99,12.09-2.98,18.14-.59,.02-1.19,.05-1.78,.07-5.5-5.61-1.7-13.38-3.41-21.05-5.21,7.77-7.43,15.41-6.33,23.38,1.64,11.8,1.36,25.05,15.99,30.14,3.85-6.11,6.79-7.53,12.05-5.94,4.96,1.51,7.46,5.7,6.77,12.37-.36,3.43-1.47,6.8-2.4,10.15-.68,2.46-1.61,4.84-2.44,7.26,.51,.35,1.01,.7,1.52,1.05,.99-1.04,2.57-1.94,2.85-3.14,.88-3.87,1.65-7.84,1.8-11.8,.33-8.83,4.45-15.1,11.91-19.49,1.62-.95,3.08-2.19,4.61-3.29-.25-.51-.49-1.01-.74-1.52-3.95,1.45-7.85,3.09-11.89,4.24-1.7,.48-3.69-.07-5.55-.15,.25-2.02,.27-4.12,.85-6.05,.35-1.19,1.57-2.11,2.37-3.17,2.22-2.93,4.42-5.87,6.63-8.81-.32-.23-.64-.46-.95-.69-3.21,3.84-6.41,7.68-9.62,11.52-.58-.24-1.16-.48-1.74-.71,2.03-7.83,4.05-15.66,6.24-24.13-4.41,4.06-8.29,7.64-12.18,11.22-.44-.3-.89-.59-1.33-.89,.49-3.73,1.07-7.46,1.41-11.2,.07-.79-.74-1.67-1.15-2.5l.06-.05Zm4.96,164.55c-.28,.02-.55,.04-.83,.07-.28,5.69-.56,11.37-.84,17.06-.37-.03-.75-.07-1.12-.1-.39-4.87-.79-9.74-1.18-14.62l-1.24-.04c-.46,5.37-.91,10.73-1.37,16.1l-1.83-.07c-.7-8.41-1.41-16.83-2.2-26.29-.76,3.24-1.29,5.47-1.81,7.7-.28,0-.55-.02-.83-.03-.35-2.82-.71-5.64-1.06-8.47-1.03,.04-1.28,.45-1.42,.9-4.38,14.31-8.53,28.7-13.23,42.9-1.8,5.43-4.65,10.54-7.37,15.62-2.18,4.08-5.02,7.8-7.28,11.84-.74,1.32-.55,3.16-.78,4.76,.35,.11,.7,.22,1.05,.32,2.1-2.42,4.2-4.85,6.3-7.27,.19,.13,.39,.27,.58,.4-2.42,6.93-4.83,13.85-7.25,20.78,.73,.27,1.46,.55,2.19,.82,1.96-4.91,3.91-9.82,5.87-14.73,1.88-4.69,3.78-9.38,5.67-14.07,0,11.3-5.3,22.33-1.7,33.83,1.09-6.71,.88-13.57,2.09-20.18,2.27-12.42,5.37-24.68,8.09-37.01,.28-1.28,.98-3.23,.4-3.83-4.6-4.8,1.35-6.74,2.16-10.03,.72,18.23-6.08,35.18-9.01,52.78,.63,.19,1.25,.38,1.88,.57,3.74-9.4,7.47-18.8,11.21-28.2,.45,.16,.9,.31,1.35,.47-5.14,13.43-6.5,27.37-5.74,41.66,2.69-9.24,5.38-18.48,8.07-27.72,.42,.09,.84,.19,1.26,.28-2.29,15.49-10.6,30.13-6.56,46.51,.59-7.92,1.17-15.85,1.76-23.77,.62,.04,1.24,.08,1.87,.12-1.11,8.57-1.91,17.11,1.19,25.9,2.14-16.12,4.21-31.66,6.27-47.21,.65,.05,1.3,.11,1.96,.16v19.44c.08-.06,.89-.64,2.09-1.5-1.74,6.22-3.34,11.95-4.95,17.67,.41,.11,.82,.21,1.24,.32,.83-3,1.65-6,2.48-9,.33,.09,.67,.18,1,.27-1.13,5.08-2.27,10.16-3.4,15.23,.43,.1,.86,.2,1.29,.3,1.21-4.36,2.42-8.71,3.63-13.07,.4,.11,.8,.21,1.2,.32-.9,4.53-1.85,9.05-2.68,13.6-1.09,5.93,.33,9.87,3.04,11.44-.17-4.23-.88-9.24-.46-14.15,.67-7.75,2.19-15.42,3.15-23.15,.26-2.11,.04-4.33-.31-6.44-.75-4.52-.84-4.51,2.98-7.87,1.19,17.31-3.55,34.58-.7,51.97,6.46-18.86,5.89-38.08,2.88-57.56,1.22,1.38,1.71,2.84,2.07,4.34,1.93,8.23,3.69,16.51,5.8,24.7,1.13,4.37,4.18,7.13,9.02,8.63-1.93-5.07-3.63-9.54-5.32-14.01-.39,.13-.78,.26-1.17,.38,.8,2.88,1.61,5.75,2.48,8.86-4.05-3.89-8.05-24.25-5.85-32.42,3.07,15.78,13.19,27.97,12.7,43.57,2.54-4.44,1.67-8.79,.27-13.23-2.04-6.49-3.81-13.07-5.85-19.55-2.03-6.46-4.27-12.86-6.4-19.29-.69-2.09-1.35-4.2-2.33-7.24,3.48,3.83,6.19,6.81,8.99,9.9,5.21-10.89-1.99-18.81-4.21-27.3-2.13-8.17-8.08-15.35-12.35-22.97,.66,7.6,2.19,14.86-.16,22.32l-6.72-22.42h-.02Zm-49.54-79.75c.45,7.02,3.79,13.97,9.82,19.43,7.78,7.04,13.6,6,18.87-3.1,2.58-4.46,4.76-9.15,7.31-13.63,5.18-9.1,2.74-21.33-6.32-26.53-3.35-1.92-8.78-2.92-12.17-1.57-9.06,3.59-17.15,13.38-17.51,25.41h0Zm11.1,235.6c-9.14,29.29-18.27,57.24-14.08,86.58,4.3,0,8.28-.74,11.82,.19,4.3,1.13,5.96-.26,6.61-4.07,.97-5.73,2.05-11.45,2.66-17.22,.16-1.56-.84-3.68-2-4.85-3.42-3.43-4.34-7.33-1.91-11.88,1.46,1.36,2.82,2.63,5.09,4.75,0-18.62-4.69-35.42-8.19-53.51h0Zm53.71,97.11c.12-.48,.25-.96,.37-1.43,2.67,.85,5.43,1.5,7.98,2.63,1.46,.65,2.44,2.7,3.87,3.01,2.65,.58,5.95,1.28,8.08,.18,1.79-.92,2.29-4.33,3.36-6.64-2.35-.81-4.72-2.35-7.05-2.3-6.47,.13-12.92,1.07-19.39,1.41-8.2,.43-16.82,.85-23.1-5.34-3.9-3.84-6.36-9.23-9.1-14.13-1.54-2.75-2.35-5.91-3.49-8.89-.59-.03-1.18-.06-1.76-.09-2.38,9.22-4.8,18.42-7.06,27.67-.23,.95,.17,2.67,.87,3.12,2.09,1.35,4.48,2.25,6.8,3.35-3.42,6.04-3.15,7.44,1.69,10.21,.65-1.82,1.29-3.6,1.97-5.49,2.17,1.99,.27,7.04,5.55,6.44,.14-2.25,.26-4.27,.4-6.63,1.27,.88,2.14,1.48,3.21,2.23,1.86-5.92-1.77-7.57-5.95-9.02-5.14-1.78-7.83-7.86-5.82-11.62,1.88,2.34,3.44,6.27,6.01,7.11,8.36,2.72,14.6,8.46,21.62,13.12,6.19,4.1,10.89,3.74,15.65-.46,1.89,1.19,3.69,2.32,5.5,3.46,.22-.29,.43-.57,.65-.86l-3.77-4.82c3.82-2.85-.52-3-1.48-3.68-1.63-1.17-3.71-1.72-5.6-2.53h0Zm18.6-346.25c-2.82-2.51-5.43-4.82-8.03-7.14-2.77-2.49-5.91-3.13-9.22-1.42-4.77,2.46-9.41,14.18-6.81,19.01,3.78,7.03,4.54,14.48,5.25,22.11,.53,5.66,6.24,8.44,10.55,4.82,5.95-5,11.53-10.56,12.15-19.11-7.15-1.57-9.75-11.37-3.89-18.27ZM128.07,447.06c4.31,8.61,4.77,8.93,12.38,3.73,3.79-2.59,6.76-6.34,10.27-9.38,2.76-2.38,5.3-4.2,9.69-1.99,2.45,1.24,7.23,.47,9.54-1.27,3.21-2.42,4.49-6.23,1.78-10.91-2.11-3.64-3.41-8.43-3.17-12.61,.75-13.25,2.42-26.45,3.64-39.67,.29-3.13,.75-7.43-3.46-7.48-4.04-.05-3.24,4.23-3.26,7.13-.06,9.79,.68,19.66-.26,29.37-1.83,19.02-6.15,32.11-30.85,40.26-2.17,.72-4.2,1.87-6.31,2.82h0Zm-52.47-91.94c.37,.31,.74,.62,1.11,.93,1.89-1.48,4.1-2.7,5.62-4.5,4.81-5.72,8.86-12.15,14.1-17.41,12.15-12.2,7.08-26.19,5.5-40.6-6.29,7.11-8.4,14.96-8.72,23.49-.17,4.48-.36,8.98-.86,13.43-.23,2.03-1.24,3.98-1.89,5.96,.06-7.9,.33-15.5,.96-23.07,.69-8.33,3.37-15.86,9.58-21.88,3.6-3.49,6.96-7.23,10.43-10.86-.28-.32-.56-.64-.84-.96-1.54,1.07-3.16,2.04-4.6,3.22-12.76,10.45-18.54,23.91-17.39,40.38,.88,12.64-2.07,23.82-12.98,31.87h-.02Zm33.33-85.82c.44,.16,.87,.32,1.31,.48-.25,2.25-.51,4.5-.76,6.75,.33,.09,.66,.19,.98,.28,3.79-5.22,7.58-10.45,11.37-15.67-7.1-2.97-13.21-1.58-18.02,4.22-3.05,3.69-5.96,7.58-8.33,11.73-4.63,8.09-9.25,15.91-20.2,15.8-.07,0-.15,.28-.35,.69,5.22,1.04,10.56,4.07,14.58-3,.56,1.51,.9,2.44,1.55,4.22,7.05-8.28,16.61-13.72,17.86-25.5h0ZM227.6,93.97c-4.5-4.77-6.4-5-9.5-.09-2.79,4.41-5.55,9.26-6.57,14.28-2.34,11.52-3.67,23.25-5.27,34.92-.34,2.44-.37,5.01,0,7.44,.18,1.24,1.38,2.97,2.45,3.25,1.05,.28,3.25-.69,3.65-1.65,1.36-3.29,3.01-6.81,3-10.25,0-9.78-.97-19.56-1.21-29.35-.27-11.05,3.18-15.68,13.46-18.55h0Zm-114.81,220.9c12.01-5.67,18.16-15.98,23.53-27.16-8.98,3.75-10.85,13.67-17.29,19.5,3.75-9.67,7.99-18.92,19.56-22.64-20.06-.69-27.18,9.35-25.79,30.29h-.01ZM191.78,65.3c6.04-4.94,10.18-4.99,15.93,.7,2.76,2.73,5.15,6.13,6.78,9.66,1.79,3.9,2.51,8.3,3.77,12.72,4.19-8.13,.58-24.81-6.42-29.79-1.99-1.41-4.37-2.45-6.72-3.15-6.27-1.84-13.44,3.57-13.33,9.85h-.01ZM91.9,447.63c.14,.43,.28,.87,.42,1.3,2.17-1.07,4.34-2.14,6.68-3.29,1.01,4.68,4.54,6.26,9.3,3.92,6.04-2.97,11.84-6.43,18.72-10.22-7.09-.49-12.97-1.25-18.85-1.21-4.61,.03-9.18,.9-11.95,5.59-.94,1.59-2.85,2.62-4.31,3.91h-.01Zm83.46-180.86c-2.51,2.91-4.67,7.81-7.67,8.38-5.47,1.05-9.81,7.55-16.42,3.77-.54-.31-2.68,1.81-3.78,3.06-.31,.35,.28,2.28,.77,2.42,4.23,1.21,8.54,2.19,12.67,3.19,.08,1.07,.18,2.31,.28,3.54,1.23-.18,2.75,.03,3.63-.62,3.35-2.49,6.48-5.27,10.65-8.72-3.42,.6-5.55,.97-8.2,1.43,3.01-2.5,5.51-4.59,8.02-6.68-.3-.34-.59-.67-.89-1.01-7.36,6.27-8.19,6.49-10.2,2.67,6.81-1.1,10.27-4.71,11.14-11.44h0Zm60.53-153.84c-.66-6.09,1.29-12.47-5.11-15.15-2.66-1.11-7.34-.7-9.52,1.03-4.92,3.89-5.19,10-5,16.58,5.11-6.11,13.01-7.17,19.62-2.46h.01Zm-96.61,168.32c-6.02-2.07-18.44-.1-23.37,3.2-5.19,3.48-8.09,8.48-8.46,14.5-.66,10.71,1.29,21.65-3.4,32.04,1.16-1,2.06-2.05,2.3-3.25,1.46-7.25,3.45-14.48,3.97-21.81,.98-13.91,6.16-20.59,19.77-23.38,2.79-.57,5.64-.81,9.19-1.3h0Zm36.49,168.97c0-4.33-1.71-7.29-5.57-8.01-3.77-.71-7.72-.28-10.14,3.4-1.83,2.79-2.16,5.71,.71,8.76,.72-1.82,1.28-3.23,2.07-5.21,1.44,3.51-1.05,8.63,4.28,8.78,5.4,.15,2.73-5.47,4.78-8.01,1.16,.09,2.39,.19,3.87,.3h0Zm23.45-149.37c-2.37,1.05-4.9,3.11-6.16,2.5-1.62-.78-2.43-3.61-3.18-5.7-.63-1.77-.68-3.76-.94-5.35-2.06,2.13-3.79,3.92-5.94,6.15-1.82-4.42-3.15-7.66-4.54-11.04-1.13,1.56-2.66,3.28-3.71,5.26-.92,1.73-1.3,3.75-1.92,5.64,1.66-.9,3.33-1.8,4.99-2.7,.42-.23,.85-.46,1.55-.84,.53,4.15,1.9,7.14,6.67,4.29,1.65,4.24,1.67,9.52,7.98,8.74,4.33-.54,4.7-3.87,5.19-6.96h0Zm42.74-36.7h-1.29v27.02c8.91-9.05,4.32-18.03,1.29-27.02Zm-37.32-22.5c-7.75,8.5-8.9,19.32-2.08,27.24,.73-9.49,1.43-18.63,2.08-27.24h0Zm12.32-122.14c5.63-.35,11.3-.7,18.57-1.15-2.06-2.38-3.23-5.09-4.92-5.46-7.11-1.57-10.17,.19-13.65,6.61h0Zm22.73,38.65c1.21-14.62,1.3-29.49-.81-44.32-.45,0-.9,.02-1.34,.03,.72,14.76,1.44,29.52,2.15,44.29Zm-47.88,158.48c7.22,8.55,24.99,9.32,34.28,1.6-11.62,3.81-23.13,5.36-34.28-1.6Zm62.87-97.83l-2,.27c.9,3.93,.96,8.35,2.88,11.69,3.57,6.2,7.39,12.12,7.69,19.54,0,.08,.58,.13,1.25,.28,1.06-12.11-8.54-20.62-9.82-31.78h0Zm-71.19-99.13c1.04,6.21,5.06,9.25,10.97,8.94,6.28-.33,11.37-4.48,11.53-9.42-8.71,8.9-14.92,9.19-22.5,.48Zm77.56,146.05c1.22-9.93-6.16-15.59-8.31-23.29-.6,.24-1.2,.49-1.79,.73,3.24,7.23,6.48,14.46,10.1,22.56Zm-8-198.44c-1.3-2.48-2.6-4.96-3.9-7.44-2.29,1.87-4.85,3.51-6.77,5.7-1.44,1.64-2.07,4-3.06,6.04,5.21-5.94,9.79-7.37,13.74-4.3h-.01Zm-40.86,223.49c-.29-.63-.58-1.27-.87-1.9-6.19,6.84-7.63-1.9-11.53-3.21,.91,5.23,4.61,9.61,7.88,8.88,1.7-.38,3.02-2.46,4.51-3.76h0Zm-72.98,37.74c-.52,6.56,4.03,9.63,7.95,13.14,.34-.24,.69-.48,1.03-.71-2.99-4.14-5.99-8.28-8.98-12.42h0Zm37.17-42.9c-.28-.3-.56-.59-.85-.89-3.18,2.99-6.36,5.98-9.54,8.98,.4,.42,.8,.84,1.19,1.26,6,.06,6.43-5.91,9.19-9.35h0Zm-21.32-20.72c-4.23,1.86-8.16,5.86-11.11,11.41,4.15-4.26,8.04-8.26,11.11-11.41Zm60.61,28.24c.19,5.32,1.47,7.35,4.49,7.76,3.27,.45,6.56-1.85,7.76-5.44-8.13,4.68-8.51,4.63-12.25-2.33h0Zm-76.94-21.37c-1.62,.87-2.67,1.43-3.72,1.99,.18,.48,.36,.96,.54,1.44,2.29-.66,4.58-1.32,6.87-1.98-.02-.67-.03-1.34-.04-2-3.06-.91-6.12-1.83-9.18-2.74-.14,.45-.28,.91-.43,1.36,1.75,.57,3.49,1.14,5.95,1.94h.01Zm15.03,34.51c-.52,.09-1.04,.17-1.56,.26,.83,4.89,1.67,9.79,2.5,14.68,.49-.09,.98-.18,1.46-.27-.8-4.89-1.6-9.78-2.4-14.67h0Zm-8.66,17.83c.66,.05,1.32,.09,1.99,.14,.3-4.3,.6-8.6,.9-12.9-.67-.05-1.35-.09-2.02-.14-.29,4.3-.58,8.6-.87,12.9Zm88.69-189.2c-.54-.04-1.09-.07-1.63-.11-.4,5.99-.79,11.99-1.19,17.98,.56,.04,1.12,.07,1.68,.11,.38-6,.76-11.99,1.14-17.99h0Zm12.46,158.57c-2.01,4.56-3.84,8.72-6.06,13.74,5.63-5.29,7.15-8.8,6.06-13.74Zm1.53-6.55c4.85-4.34,5.91-9.62,3.15-12.95-.96,3.94-2,8.2-3.15,12.95Z"/>
  <path class="cls-1" d="M177.19,93.46c2.4-2.63,4.19-4.6,5.99-6.57,1.01,1.25,3.13,2.92,2.84,3.68-1.03,2.69-2.87,5.06-4.4,7.55-1.18-1.23-2.35-2.47-4.43-4.65h0Z"/>
</svg>